<?xml version="1.0" standalone="no"?>
<!DOCTYPE svg PUBLIC "-//W3C//DTD SVG 20010904//EN"
 "http://www.w3.org/TR/2001/REC-SVG-20010904/DTD/svg10.dtd">
<svg version="1.0" xmlns="http://www.w3.org/2000/svg"
 width="1024.000000pt" height="1024.000000pt" viewBox="0 0 1024.000000 1024.000000"
 preserveAspectRatio="xMidYMid meet">
<metadata>
Created by potrace 1.11, written by Peter Selinger 2001-2013
</metadata>
<g transform="translate(0.000000,1024.000000) scale(0.100000,-0.100000)"
fill="#000000" stroke="none">
<path d="M3705 8586 c-93 -29 -187 -95 -245 -172 -28 -36 -58 -111 -70 -170
-8 -42 -10 -326 -8 -989 4 -1010 0 -945 60 -1045 42 -71 110 -135 179 -170 93
-48 101 -49 647 -50 284 0 518 -3 520 -5 3 -2 4 -46 4 -97 0 -51 -1 -172 -1
-268 l-1 -175 -1933 0 -1932 0 -45 -27 c-93 -54 -109 -100 -109 -304 0 -145 2
-160 24 -203 25 -50 46 -70 97 -98 31 -16 87 -17 770 -18 l738 0 0 -272 0
-273 -402 -1 c-222 -1 -414 -3 -428 -4 -50 -6 -141 -47 -188 -85 -79 -62 -137
-146 -162 -235 -21 -74 -21 -1885 0 -1960 17 -64 80 -168 121 -202 17 -15 36
-32 43 -38 16 -16 73 -44 135 -66 52 -18 96 -19 1220 -16 1259 3 1183 -1 1288
55 56 29 140 116 170 176 54 107 52 69 52 1071 0 1000 1 981 -52 1074 -34 59
-122 148 -172 173 -32 17 -144 59 -152 58 -2 0 -187 0 -412 0 l-408 0 -1 269
c0 196 3 271 11 273 7 2 937 4 2067 4 l2055 -1 2 -272 1 -273 -401 -1 c-221
-1 -411 -3 -422 -4 -42 -5 -135 -36 -135 -45 0 -6 -6 -10 -13 -10 -28 0 -140
-110 -170 -165 -55 -103 -51 -37 -54 -1055 -3 -1029 -4 -1001 53 -1105 27 -47
129 -155 147 -155 6 0 18 -6 26 -13 9 -7 36 -22 61 -33 43 -18 85 -19 1200
-22 776 -2 1171 1 1205 8 53 11 147 51 169 72 7 7 28 26 45 41 45 40 97 124
117 193 17 55 18 128 18 989 0 998 1 978 -50 1069 -37 65 -118 149 -171 178
-45 24 -145 59 -161 57 -4 -1 -188 -1 -409 0 l-403 1 0 273 0 272 738 1 c728
0 737 0 777 21 48 25 66 44 93 99 18 36 21 59 21 198 0 87 -5 170 -11 189 -20
57 -65 104 -121 125 -51 20 -91 20 -1969 18 l-1918 -1 -1 25 c-3 98 0 512 3
515 2 3 236 5 519 5 460 1 521 3 570 18 99 32 131 54 230 160 25 26 58 92 74
147 13 43 15 188 15 980 0 1004 2 963 -54 1073 -25 50 -128 162 -148 162 -5 0
-22 8 -36 18 -15 10 -54 26 -87 35 -55 15 -180 17 -1425 16 -1068 0 -1374 -3
-1405 -13z m2285 -1291 l0 -435 -870 0 -870 0 0 435 0 435 870 0 870 0 0 -435z
m-2610 -4350 l0 -435 -652 2 -653 3 -1 425 c0 234 1 428 3 433 2 4 296 7 654
7 l649 0 0 -435z m4785 -2 l0 -433 -652 0 -653 0 0 435 0 435 653 -2 652 -3 0
-432z"/>
</g>
</svg>
